<?xml version="1.0" standalone="no"?>
<!DOCTYPE svg PUBLIC "-//W3C//DTD SVG 20010904//EN"
 "http://www.w3.org/TR/2001/REC-SVG-20010904/DTD/svg10.dtd">
<svg version="1.0" xmlns="http://www.w3.org/2000/svg"
 width="217.000000pt" height="237.000000pt" viewBox="0 0 217.000000 237.000000"
 preserveAspectRatio="xMidYMid meet">

<g transform="translate(0.000000,237.000000) scale(0.100000,-0.100000)"
fill="#000000" stroke="none">
<path d="M1145 2225 c-16 -8 -55 -17 -85 -20 -216 -27 -306 -78 -374 -213 -15
-30 -40 -59 -65 -75 -124 -82 -267 -260 -330 -411 -113 -272 -114 -591 -1
-859 29 -68 101 -197 110 -197 3 0 19 24 35 52 70 120 224 231 340 244 64 7
114 58 115 116 0 33 -5 41 -46 69 -83 57 -163 189 -180 300 -5 30 -13 43 -34
54 -37 19 -40 31 -40 141 0 106 7 127 50 149 25 13 29 22 35 72 14 113 50 203
110 274 l55 67 207 3 208 4 57 -60 c74 -78 96 -124 113 -245 14 -105 20 -124
36 -115 5 4 23 -7 39 -24 29 -28 30 -33 30 -116 0 -93 -13 -131 -52 -157 -16
-11 -27 -32 -35 -71 -23 -108 -113 -247 -187 -286 -22 -12 -26 -21 -26 -61 0
-67 37 -107 108 -114 65 -8 170 -59 234 -115 41 -37 117 -137 131 -173 9 -25
73 80 126 205 57 138 74 233 74 412 0 130 -4 176 -22 249 -26 107 -71 217
-125 310 -48 82 -188 233 -256 277 -37 24 -55 46 -79 93 -19 38 -47 75 -77
100 -42 35 -46 42 -41 72 6 37 2 39 -37 24 -23 -8 -26 -7 -26 11 0 20 -1 21
-25 5 -31 -21 -34 -20 -28 4 6 23 0 24 -42 5z"/>
<path d="M743 1625 c-20 -20 -34 -38 -31 -40 2 -2 21 1 41 7 30 9 55 8 130 -7
73 -14 100 -16 125 -7 18 6 42 9 54 6 72 -14 108 -15 164 0 72 19 117 20 146
5 36 -19 34 2 -4 37 -21 19 -47 34 -59 34 -11 0 -66 -12 -122 -26 -124 -32
-125 -32 -258 0 -59 14 -117 26 -129 26 -12 0 -38 -16 -57 -35z"/>
<path d="M798 1489 c-22 -21 -26 -28 -13 -23 11 5 40 8 65 8 25 0 54 -3 65 -8
13 -5 9 2 -13 23 -18 17 -41 31 -52 31 -11 0 -34 -14 -52 -31z"/>
<path d="M1235 1510 c-26 -10 -50 -38 -41 -47 3 -4 12 -1 18 5 17 17 80 15
108 -5 22 -16 23 -16 17 1 -4 10 -7 19 -7 22 0 5 -57 34 -67 33 -4 0 -17 -4
-28 -9z"/>
<path d="M926 1172 c-12 -19 17 -82 50 -111 28 -25 44 -31 80 -31 55 0 89 21
115 71 29 59 22 109 -9 59 -11 -18 -23 -20 -102 -20 -79 0 -91 2 -102 20 -14
21 -24 25 -32 12z"/>
</g>
</svg>
